<svg width="60" height="60" viewBox="0 0 60 60" fill="none" xmlns="http://www.w3.org/2000/svg">
<circle cx="30" cy="30" r="29" fill="white" stroke="black" stroke-width="2"/>
<path fill-rule="evenodd" clip-rule="evenodd" d="M30 50.5714C35.4559 50.5714 40.6883 48.4041 44.5462 44.5462C48.4041 40.6883 50.5714 35.4559 50.5714 30C50.5714 24.5441 48.4041 19.3117 44.5462 15.4538C40.6883 11.5959 35.4559 9.42856 30 9.42856C24.5441 9.42856 19.3117 11.5959 15.4538 15.4538C11.5959 19.3117 9.42859 24.5441 9.42859 30C9.42859 35.4559 11.5959 40.6883 15.4538 44.5462C19.3117 48.4041 24.5441 50.5714 30 50.5714V50.5714ZM32.5714 22.2857C32.5714 21.6037 32.3005 20.9497 31.8183 20.4674C31.3361 19.9852 30.682 19.7143 30 19.7143C29.318 19.7143 28.664 19.9852 28.1817 20.4674C27.6995 20.9497 27.4286 21.6037 27.4286 22.2857V27.4286H22.2857C21.6037 27.4286 20.9497 27.6995 20.4675 28.1817C19.9852 28.6639 19.7143 29.318 19.7143 30C19.7143 30.682 19.9852 31.336 20.4675 31.8183C20.9497 32.3005 21.6037 32.5714 22.2857 32.5714H27.4286V37.7143C27.4286 38.3963 27.6995 39.0503 28.1817 39.5325C28.664 40.0148 29.318 40.2857 30 40.2857C30.682 40.2857 31.3361 40.0148 31.8183 39.5325C32.3005 39.0503 32.5714 38.3963 32.5714 37.7143V32.5714H37.7143C38.3963 32.5714 39.0503 32.3005 39.5326 31.8183C40.0148 31.336 40.2857 30.682 40.2857 30C40.2857 29.318 40.0148 28.6639 39.5326 28.1817C39.0503 27.6995 38.3963 27.4286 37.7143 27.4286H32.5714V22.2857Z" fill="#007636"/>
</svg>
