<svg width="161" height="37" viewBox="0 0 161 37" fill="none" xmlns="http://www.w3.org/2000/svg">
<rect width="161" height="37" rx="5" fill="#C4C4C4"/>
<path d="M42.645 19.765C42.645 18.745 42.875 17.83 43.335 17.02C43.795 16.2 44.42 15.56 45.21 15.1C46.01 14.64 46.895 14.41 47.865 14.41C49.005 14.41 50 14.685 50.85 15.235C51.7 15.785 52.32 16.565 52.71 17.575H51.075C50.785 16.945 50.365 16.46 49.815 16.12C49.275 15.78 48.625 15.61 47.865 15.61C47.135 15.61 46.48 15.78 45.9 16.12C45.32 16.46 44.865 16.945 44.535 17.575C44.205 18.195 44.04 18.925 44.04 19.765C44.04 20.595 44.205 21.325 44.535 21.955C44.865 22.575 45.32 23.055 45.9 23.395C46.48 23.735 47.135 23.905 47.865 23.905C48.625 23.905 49.275 23.74 49.815 23.41C50.365 23.07 50.785 22.585 51.075 21.955H52.71C52.32 22.955 51.7 23.73 50.85 24.28C50 24.82 49.005 25.09 47.865 25.09C46.895 25.09 46.01 24.865 45.21 24.415C44.42 23.955 43.795 23.32 43.335 22.51C42.875 21.7 42.645 20.785 42.645 19.765ZM58.3269 25.135C57.5569 25.135 56.8569 24.96 56.2269 24.61C55.6069 24.26 55.1169 23.765 54.7569 23.125C54.4069 22.475 54.2319 21.725 54.2319 20.875C54.2319 20.035 54.4119 19.295 54.7719 18.655C55.1419 18.005 55.6419 17.51 56.2719 17.17C56.9019 16.82 57.6069 16.645 58.3869 16.645C59.1669 16.645 59.8719 16.82 60.5019 17.17C61.1319 17.51 61.6269 18 61.9869 18.64C62.3569 19.28 62.5419 20.025 62.5419 20.875C62.5419 21.725 62.3519 22.475 61.9719 23.125C61.6019 23.765 61.0969 24.26 60.4569 24.61C59.8169 24.96 59.1069 25.135 58.3269 25.135ZM58.3269 23.935C58.8169 23.935 59.2769 23.82 59.7069 23.59C60.1369 23.36 60.4819 23.015 60.7419 22.555C61.0119 22.095 61.1469 21.535 61.1469 20.875C61.1469 20.215 61.0169 19.655 60.7569 19.195C60.4969 18.735 60.1569 18.395 59.7369 18.175C59.3169 17.945 58.8619 17.83 58.3719 17.83C57.8719 17.83 57.4119 17.945 56.9919 18.175C56.5819 18.395 56.2519 18.735 56.0019 19.195C55.7519 19.655 55.6269 20.215 55.6269 20.875C55.6269 21.545 55.7469 22.11 55.9869 22.57C56.2369 23.03 56.5669 23.375 56.9769 23.605C57.3869 23.825 57.8369 23.935 58.3269 23.935ZM68.3416 16.63C69.3416 16.63 70.1516 16.935 70.7716 17.545C71.3916 18.145 71.7016 19.015 71.7016 20.155V25H70.3516V20.35C70.3516 19.53 70.1466 18.905 69.7366 18.475C69.3266 18.035 68.7666 17.815 68.0566 17.815C67.3366 17.815 66.7616 18.04 66.3316 18.49C65.9116 18.94 65.7016 19.595 65.7016 20.455V25H64.3366V16.78H65.7016V17.95C65.9716 17.53 66.3366 17.205 66.7966 16.975C67.2666 16.745 67.7816 16.63 68.3416 16.63ZM76.8414 25.135C76.2114 25.135 75.6464 25.03 75.1464 24.82C74.6464 24.6 74.2514 24.3 73.9614 23.92C73.6714 23.53 73.5114 23.085 73.4814 22.585H74.8914C74.9314 22.995 75.1214 23.33 75.4614 23.59C75.8114 23.85 76.2664 23.98 76.8264 23.98C77.3464 23.98 77.7564 23.865 78.0564 23.635C78.3564 23.405 78.5064 23.115 78.5064 22.765C78.5064 22.405 78.3464 22.14 78.0264 21.97C77.7064 21.79 77.2114 21.615 76.5414 21.445C75.9314 21.285 75.4314 21.125 75.0414 20.965C74.6614 20.795 74.3314 20.55 74.0514 20.23C73.7814 19.9 73.6464 19.47 73.6464 18.94C73.6464 18.52 73.7714 18.135 74.0214 17.785C74.2714 17.435 74.6264 17.16 75.0864 16.96C75.5464 16.75 76.0714 16.645 76.6614 16.645C77.5714 16.645 78.3064 16.875 78.8664 17.335C79.4264 17.795 79.7264 18.425 79.7664 19.225H78.4014C78.3714 18.795 78.1964 18.45 77.8764 18.19C77.5664 17.93 77.1464 17.8 76.6164 17.8C76.1264 17.8 75.7364 17.905 75.4464 18.115C75.1564 18.325 75.0114 18.6 75.0114 18.94C75.0114 19.21 75.0964 19.435 75.2664 19.615C75.4464 19.785 75.6664 19.925 75.9264 20.035C76.1964 20.135 76.5664 20.25 77.0364 20.38C77.6264 20.54 78.1064 20.7 78.4764 20.86C78.8464 21.01 79.1614 21.24 79.4214 21.55C79.6914 21.86 79.8314 22.265 79.8414 22.765C79.8414 23.215 79.7164 23.62 79.4664 23.98C79.2164 24.34 78.8614 24.625 78.4014 24.835C77.9514 25.035 77.4314 25.135 76.8414 25.135ZM89.0583 16.78V25H87.6933V23.785C87.4333 24.205 87.0683 24.535 86.5983 24.775C86.1383 25.005 85.6283 25.12 85.0683 25.12C84.4283 25.12 83.8533 24.99 83.3433 24.73C82.8333 24.46 82.4283 24.06 82.1283 23.53C81.8383 23 81.6933 22.355 81.6933 21.595V16.78H83.0433V21.415C83.0433 22.225 83.2483 22.85 83.6583 23.29C84.0683 23.72 84.6283 23.935 85.3383 23.935C86.0683 23.935 86.6433 23.71 87.0633 23.26C87.4833 22.81 87.6933 22.155 87.6933 21.295V16.78H89.0583ZM92.728 13.9V25H91.363V13.9H92.728ZM96.7194 17.905V22.75C96.7194 23.15 96.8044 23.435 96.9744 23.605C97.1444 23.765 97.4394 23.845 97.8594 23.845H98.8644V25H97.6344C96.8744 25 96.3044 24.825 95.9244 24.475C95.5444 24.125 95.3544 23.55 95.3544 22.75V17.905H94.2894V16.78H95.3544V14.71H96.7194V16.78H98.8644V17.905H96.7194ZM100.008 20.86C100.008 20.02 100.178 19.285 100.518 18.655C100.858 18.015 101.323 17.52 101.913 17.17C102.513 16.82 103.178 16.645 103.908 16.645C104.628 16.645 105.253 16.8 105.783 17.11C106.313 17.42 106.708 17.81 106.968 18.28V16.78H108.348V25H106.968V23.47C106.698 23.95 106.293 24.35 105.753 24.67C105.223 24.98 104.603 25.135 103.893 25.135C103.163 25.135 102.503 24.955 101.913 24.595C101.323 24.235 100.858 23.73 100.518 23.08C100.178 22.43 100.008 21.69 100.008 20.86ZM106.968 20.875C106.968 20.255 106.843 19.715 106.593 19.255C106.343 18.795 106.003 18.445 105.573 18.205C105.153 17.955 104.688 17.83 104.178 17.83C103.668 17.83 103.203 17.95 102.783 18.19C102.363 18.43 102.028 18.78 101.778 19.24C101.528 19.7 101.403 20.24 101.403 20.86C101.403 21.49 101.528 22.04 101.778 22.51C102.028 22.97 102.363 23.325 102.783 23.575C103.203 23.815 103.668 23.935 104.178 23.935C104.688 23.935 105.153 23.815 105.573 23.575C106.003 23.325 106.343 22.97 106.593 22.51C106.843 22.04 106.968 21.495 106.968 20.875ZM112.02 18.115C112.26 17.645 112.6 17.28 113.04 17.02C113.49 16.76 114.035 16.63 114.675 16.63V18.04H114.315C112.785 18.04 112.02 18.87 112.02 20.53V25H110.655V16.78H112.02V18.115Z" fill="black"/>
</svg>
