<svg width="177" height="37" viewBox="0 0 177 37" fill="none" xmlns="http://www.w3.org/2000/svg">
<rect width="161" height="37" rx="5" fill="#C4C4C4"/>
<path d="M62.215 23.74L64.765 16.78H66.22L62.995 25H61.405L58.18 16.78H59.65L62.215 23.74ZM71.1482 25.135C70.3782 25.135 69.6782 24.96 69.0482 24.61C68.4282 24.26 67.9382 23.765 67.5782 23.125C67.2282 22.475 67.0532 21.725 67.0532 20.875C67.0532 20.035 67.2332 19.295 67.5932 18.655C67.9632 18.005 68.4632 17.51 69.0932 17.17C69.7232 16.82 70.4282 16.645 71.2082 16.645C71.9882 16.645 72.6932 16.82 73.3232 17.17C73.9532 17.51 74.4482 18 74.8082 18.64C75.1782 19.28 75.3632 20.025 75.3632 20.875C75.3632 21.725 75.1732 22.475 74.7932 23.125C74.4232 23.765 73.9182 24.26 73.2782 24.61C72.6382 24.96 71.9282 25.135 71.1482 25.135ZM71.1482 23.935C71.6382 23.935 72.0982 23.82 72.5282 23.59C72.9582 23.36 73.3032 23.015 73.5632 22.555C73.8332 22.095 73.9682 21.535 73.9682 20.875C73.9682 20.215 73.8382 19.655 73.5782 19.195C73.3182 18.735 72.9782 18.395 72.5582 18.175C72.1382 17.945 71.6832 17.83 71.1932 17.83C70.6932 17.83 70.2332 17.945 69.8132 18.175C69.4032 18.395 69.0732 18.735 68.8232 19.195C68.5732 19.655 68.4482 20.215 68.4482 20.875C68.4482 21.545 68.5682 22.11 68.8082 22.57C69.0582 23.03 69.3882 23.375 69.7982 23.605C70.2082 23.825 70.6582 23.935 71.1482 23.935ZM78.5229 13.9V25H77.1579V13.9H78.5229ZM83.9093 23.74L86.4593 16.78H87.9143L84.6893 25H83.0993L79.8743 16.78H81.3443L83.9093 23.74ZM96.7575 20.575C96.7575 20.835 96.7425 21.11 96.7125 21.4H90.1425C90.1925 22.21 90.4675 22.845 90.9675 23.305C91.4775 23.755 92.0925 23.98 92.8125 23.98C93.4025 23.98 93.8925 23.845 94.2825 23.575C94.6825 23.295 94.9625 22.925 95.1225 22.465H96.5925C96.3725 23.255 95.9325 23.9 95.2725 24.4C94.6125 24.89 93.7925 25.135 92.8125 25.135C92.0325 25.135 91.3325 24.96 90.7125 24.61C90.1025 24.26 89.6225 23.765 89.2725 23.125C88.9225 22.475 88.7475 21.725 88.7475 20.875C88.7475 20.025 88.9175 19.28 89.2575 18.64C89.5975 18 90.0725 17.51 90.6825 17.17C91.3025 16.82 92.0125 16.645 92.8125 16.645C93.5925 16.645 94.2825 16.815 94.8825 17.155C95.4825 17.495 95.9425 17.965 96.2625 18.565C96.5925 19.155 96.7575 19.825 96.7575 20.575ZM95.3475 20.29C95.3475 19.77 95.2325 19.325 95.0025 18.955C94.7725 18.575 94.4575 18.29 94.0575 18.1C93.6675 17.9 93.2325 17.8 92.7525 17.8C92.0625 17.8 91.4725 18.02 90.9825 18.46C90.5025 18.9 90.2275 19.51 90.1575 20.29H95.3475ZM99.9243 18.115C100.164 17.645 100.504 17.28 100.944 17.02C101.394 16.76 101.939 16.63 102.579 16.63V18.04H102.219C100.689 18.04 99.9243 18.87 99.9243 20.53V25H98.5593V16.78H99.9243V18.115Z" fill="black"/>
</svg>
