<svg width="372" height="80" viewBox="0 0 372 80" fill="none" xmlns="http://www.w3.org/2000/svg">
<rect width="372" height="80" rx="15" fill="#E2E2E2"/>
<path d="M24 28H30H24ZM24 32H30H24ZM32 37H22C21.4696 37 20.9609 36.7893 20.5858 36.4142C20.2107 36.0391 20 35.5304 20 35V21C20 20.4696 20.2107 19.9609 20.5858 19.5858C20.9609 19.2107 21.4696 19 22 19H27.586C27.8512 19.0001 28.1055 19.1055 28.293 19.293L33.707 24.707C33.8946 24.8945 33.9999 25.1488 34 25.414V35C34 35.5304 33.7893 36.0391 33.4142 36.4142C33.0391 36.7893 32.5304 37 32 37Z" stroke="black" stroke-width="2" stroke-linecap="round" stroke-linejoin="round"/>
</svg>
