<svg width="372" height="80" viewBox="0 0 372 80" fill="none" xmlns="http://www.w3.org/2000/svg">
<rect width="372" height="80" rx="15" fill="#E2E2E2"/>
<path fill-rule="evenodd" clip-rule="evenodd" d="M23 16C22.7348 16 22.4804 16.1054 22.2929 16.2929C22.1054 16.4804 22 16.7348 22 17V18H21C20.4696 18 19.9609 18.2107 19.5858 18.5858C19.2107 18.9609 19 19.4696 19 20V30C19 30.5304 19.2107 31.0391 19.5858 31.4142C19.9609 31.7893 20.4696 32 21 32H33C33.5304 32 34.0391 31.7893 34.4142 31.4142C34.7893 31.0391 35 30.5304 35 30V20C35 19.4696 34.7893 18.9609 34.4142 18.5858C34.0391 18.2107 33.5304 18 33 18H32V17C32 16.7348 31.8946 16.4804 31.7071 16.2929C31.5196 16.1054 31.2652 16 31 16C30.7348 16 30.4804 16.1054 30.2929 16.2929C30.1054 16.4804 30 16.7348 30 17V18H24V17C24 16.7348 23.8946 16.4804 23.7071 16.2929C23.5196 16.1054 23.2652 16 23 16V16ZM23 21C22.7348 21 22.4804 21.1054 22.2929 21.2929C22.1054 21.4804 22 21.7348 22 22C22 22.2652 22.1054 22.5196 22.2929 22.7071C22.4804 22.8946 22.7348 23 23 23H31C31.2652 23 31.5196 22.8946 31.7071 22.7071C31.8946 22.5196 32 22.2652 32 22C32 21.7348 31.8946 21.4804 31.7071 21.2929C31.5196 21.1054 31.2652 21 31 21H23Z" fill="black"/>
</svg>
