<svg width="73" height="30" viewBox="0 0 73 30" fill="none" xmlns="http://www.w3.org/2000/svg">
<rect width="73" height="30" rx="15" fill="#457B9D"/>
<path d="M11.8864 19H10.4091L14.6818 7.36364H16.1364L20.4091 19H18.9318L15.4545 9.20455H15.3636L11.8864 19ZM12.4318 14.4545H18.3864V15.7045H12.4318V14.4545ZM25.3352 19.1818C24.608 19.1818 23.9659 18.9981 23.4091 18.6307C22.8523 18.2595 22.4167 17.7367 22.1023 17.0625C21.7879 16.3845 21.6307 15.5833 21.6307 14.6591C21.6307 13.7424 21.7879 12.947 22.1023 12.2727C22.4167 11.5985 22.8542 11.0777 23.4148 10.7102C23.9754 10.3428 24.6231 10.1591 25.358 10.1591C25.9261 10.1591 26.375 10.2538 26.7045 10.4432C27.0379 10.6288 27.2917 10.8409 27.4659 11.0795C27.6439 11.3144 27.7822 11.5076 27.8807 11.6591H27.9943V7.36364H29.3352V19H28.0398V17.6591H27.8807C27.7822 17.8182 27.642 18.0189 27.4602 18.2614C27.2784 18.5 27.0189 18.714 26.6818 18.9034C26.3447 19.089 25.8958 19.1818 25.3352 19.1818ZM25.517 17.9773C26.0549 17.9773 26.5095 17.8371 26.8807 17.5568C27.2519 17.2727 27.5341 16.8807 27.7273 16.3807C27.9205 15.8769 28.017 15.2955 28.017 14.6364C28.017 13.9848 27.9223 13.4148 27.733 12.9261C27.5436 12.4337 27.2633 12.0511 26.892 11.7784C26.5208 11.5019 26.0625 11.3636 25.517 11.3636C24.9489 11.3636 24.4754 11.5095 24.0966 11.8011C23.7216 12.089 23.4394 12.4811 23.25 12.9773C23.0644 13.4697 22.9716 14.0227 22.9716 14.6364C22.9716 15.2576 23.0663 15.822 23.2557 16.3295C23.4489 16.8333 23.733 17.2348 24.108 17.5341C24.4867 17.8295 24.9564 17.9773 25.517 17.9773ZM35.2727 19.1818C34.5455 19.1818 33.9034 18.9981 33.3466 18.6307C32.7898 18.2595 32.3542 17.7367 32.0398 17.0625C31.7254 16.3845 31.5682 15.5833 31.5682 14.6591C31.5682 13.7424 31.7254 12.947 32.0398 12.2727C32.3542 11.5985 32.7917 11.0777 33.3523 10.7102C33.9129 10.3428 34.5606 10.1591 35.2955 10.1591C35.8636 10.1591 36.3125 10.2538 36.642 10.4432C36.9754 10.6288 37.2292 10.8409 37.4034 11.0795C37.5814 11.3144 37.7197 11.5076 37.8182 11.6591H37.9318V7.36364H39.2727V19H37.9773V17.6591H37.8182C37.7197 17.8182 37.5795 18.0189 37.3977 18.2614C37.2159 18.5 36.9564 18.714 36.6193 18.9034C36.2822 19.089 35.8333 19.1818 35.2727 19.1818ZM35.4545 17.9773C35.9924 17.9773 36.447 17.8371 36.8182 17.5568C37.1894 17.2727 37.4716 16.8807 37.6648 16.3807C37.858 15.8769 37.9545 15.2955 37.9545 14.6364C37.9545 13.9848 37.8598 13.4148 37.6705 12.9261C37.4811 12.4337 37.2008 12.0511 36.8295 11.7784C36.4583 11.5019 36 11.3636 35.4545 11.3636C34.8864 11.3636 34.4129 11.5095 34.0341 11.8011C33.6591 12.089 33.3769 12.4811 33.1875 12.9773C33.0019 13.4697 32.9091 14.0227 32.9091 14.6364C32.9091 15.2576 33.0038 15.822 33.1932 16.3295C33.3864 16.8333 33.6705 17.2348 34.0455 17.5341C34.4242 17.8295 34.8939 17.9773 35.4545 17.9773Z" fill="white"/>
<circle cx="58" cy="15" r="13" fill="#D9D9D9"/>
</svg>
