<svg width="73" height="30" viewBox="0 0 73 30" fill="none" xmlns="http://www.w3.org/2000/svg">
<rect width="73" height="30" rx="15" fill="#457B9D"/>
<circle cx="16" cy="15" r="13" fill="#D9D9D9"/>
<path d="M34.4091 21V9.36364H41.3864V10.6136H35.8182V14.5455H40.8636V15.7955H35.8182V21H34.4091ZM43.6179 21V12.2727H44.9588V21H43.6179ZM44.2997 10.8182C44.0384 10.8182 43.813 10.7292 43.6236 10.5511C43.438 10.3731 43.3452 10.1591 43.3452 9.90909C43.3452 9.65909 43.438 9.44508 43.6236 9.26705C43.813 9.08902 44.0384 9 44.2997 9C44.5611 9 44.7846 9.08902 44.9702 9.26705C45.1596 9.44508 45.2543 9.65909 45.2543 9.90909C45.2543 10.1591 45.1596 10.3731 44.9702 10.5511C44.7846 10.7292 44.5611 10.8182 44.2997 10.8182ZM47.4148 21V12.2727H48.7102V13.5909H48.8011C48.9602 13.1591 49.2481 12.8087 49.6648 12.5398C50.0814 12.2708 50.5511 12.1364 51.0739 12.1364C51.1723 12.1364 51.2955 12.1383 51.4432 12.142C51.5909 12.1458 51.7027 12.1515 51.7784 12.1591V13.5227C51.733 13.5114 51.6288 13.4943 51.4659 13.4716C51.3068 13.4451 51.1383 13.4318 50.9602 13.4318C50.536 13.4318 50.1572 13.5208 49.8239 13.6989C49.4943 13.8731 49.233 14.1155 49.0398 14.4261C48.8504 14.733 48.7557 15.0833 48.7557 15.4773V21H47.4148ZM59.5497 14.2273L58.3452 14.5682C58.2694 14.3674 58.1577 14.1723 58.0099 13.983C57.866 13.7898 57.669 13.6307 57.419 13.5057C57.169 13.3807 56.849 13.3182 56.4588 13.3182C55.9247 13.3182 55.4796 13.4413 55.1236 13.6875C54.7713 13.9299 54.5952 14.2386 54.5952 14.6136C54.5952 14.947 54.7164 15.2102 54.9588 15.4034C55.2012 15.5966 55.58 15.7576 56.0952 15.8864L57.3906 16.2045C58.1709 16.3939 58.7524 16.6837 59.1349 17.0739C59.5175 17.4602 59.7088 17.9583 59.7088 18.5682C59.7088 19.0682 59.5649 19.5152 59.277 19.9091C58.9929 20.303 58.5952 20.6136 58.0838 20.8409C57.5724 21.0682 56.9777 21.1818 56.2997 21.1818C55.4096 21.1818 54.6728 20.9886 54.0895 20.6023C53.5062 20.2159 53.1368 19.6515 52.9815 18.9091L54.2543 18.5909C54.3755 19.0606 54.6046 19.4129 54.9418 19.6477C55.2827 19.8826 55.7277 20 56.277 20C56.902 20 57.3982 19.8674 57.7656 19.6023C58.1368 19.3333 58.3224 19.0114 58.3224 18.6364C58.3224 18.3333 58.2164 18.0795 58.0043 17.875C57.7921 17.6667 57.4664 17.5114 57.027 17.4091L55.5724 17.0682C54.7732 16.8788 54.1861 16.5852 53.8111 16.1875C53.4399 15.786 53.2543 15.2841 53.2543 14.6818C53.2543 14.1894 53.3925 13.7538 53.669 13.375C53.9493 12.9962 54.33 12.6989 54.8111 12.483C55.2959 12.267 55.8452 12.1591 56.4588 12.1591C57.3224 12.1591 58.0005 12.3485 58.4929 12.7273C58.9891 13.1061 59.3414 13.6061 59.5497 14.2273ZM65.5227 12.2727V13.4091H61V12.2727H65.5227ZM62.3182 10.1818H63.6591V18.5C63.6591 18.8788 63.714 19.1629 63.8239 19.3523C63.9375 19.5379 64.0814 19.6629 64.2557 19.7273C64.4337 19.7879 64.6212 19.8182 64.8182 19.8182C64.9659 19.8182 65.0871 19.8106 65.1818 19.7955C65.2765 19.7765 65.3523 19.7614 65.4091 19.75L65.6818 20.9545C65.5909 20.9886 65.464 21.0227 65.3011 21.0568C65.1383 21.0947 64.9318 21.1136 64.6818 21.1136C64.303 21.1136 63.9318 21.0322 63.5682 20.8693C63.2083 20.7064 62.9091 20.4583 62.6705 20.125C62.4356 19.7917 62.3182 19.3712 62.3182 18.8636V10.1818Z" fill="white"/>
</svg>
