<svg width="73" height="30" viewBox="0 0 73 30" fill="none" xmlns="http://www.w3.org/2000/svg">
<rect width="73" height="30" rx="15" fill="#E63946"/>
<path d="M11.4091 19V7.36364H12.8182V17.75H18.2273V19H11.4091ZM22.7955 19.2045C22.2424 19.2045 21.7405 19.1004 21.2898 18.892C20.839 18.6799 20.4811 18.375 20.2159 17.9773C19.9508 17.5758 19.8182 17.0909 19.8182 16.5227C19.8182 16.0227 19.9167 15.6174 20.1136 15.3068C20.3106 14.9924 20.5739 14.7462 20.9034 14.5682C21.233 14.3902 21.5966 14.2576 21.9943 14.1705C22.3958 14.0795 22.7992 14.0076 23.2045 13.9545C23.7348 13.8864 24.1648 13.8352 24.4943 13.8011C24.8277 13.7633 25.0701 13.7008 25.2216 13.6136C25.3769 13.5265 25.4545 13.375 25.4545 13.1591V13.1136C25.4545 12.553 25.3011 12.1174 24.9943 11.8068C24.6913 11.4962 24.2311 11.3409 23.6136 11.3409C22.9735 11.3409 22.4716 11.4811 22.108 11.7614C21.7443 12.0417 21.4886 12.3409 21.3409 12.6591L20.0682 12.2045C20.2955 11.6742 20.5985 11.2614 20.9773 10.9659C21.3598 10.6667 21.7765 10.4583 22.2273 10.3409C22.6818 10.2197 23.1288 10.1591 23.5682 10.1591C23.8485 10.1591 24.1705 10.1932 24.5341 10.2614C24.9015 10.3258 25.2557 10.4602 25.5966 10.6648C25.9413 10.8693 26.2273 11.178 26.4545 11.5909C26.6818 12.0038 26.7955 12.5568 26.7955 13.25V19H25.4545V17.8182H25.3864C25.2955 18.0076 25.1439 18.2102 24.9318 18.4261C24.7197 18.642 24.4375 18.8258 24.0852 18.9773C23.733 19.1288 23.303 19.2045 22.7955 19.2045ZM23 18C23.5303 18 23.9773 17.8958 24.3409 17.6875C24.7083 17.4792 24.9848 17.2102 25.1705 16.8807C25.3598 16.5511 25.4545 16.2045 25.4545 15.8409V14.6136C25.3977 14.6818 25.2727 14.7443 25.0795 14.8011C24.8902 14.8542 24.6705 14.9015 24.4205 14.9432C24.1742 14.9811 23.9337 15.0152 23.6989 15.0455C23.4678 15.072 23.2803 15.0947 23.1364 15.1136C22.7879 15.1591 22.4621 15.233 22.1591 15.3352C21.8598 15.4337 21.6174 15.5833 21.4318 15.7841C21.25 15.9811 21.1591 16.25 21.1591 16.5909C21.1591 17.0568 21.3314 17.4091 21.6761 17.6477C22.0246 17.8826 22.4659 18 23 18ZM35.4247 12.2273L34.2202 12.5682C34.1444 12.3674 34.0327 12.1723 33.8849 11.983C33.741 11.7898 33.544 11.6307 33.294 11.5057C33.044 11.3807 32.724 11.3182 32.3338 11.3182C31.7997 11.3182 31.3546 11.4413 30.9986 11.6875C30.6463 11.9299 30.4702 12.2386 30.4702 12.6136C30.4702 12.947 30.5914 13.2102 30.8338 13.4034C31.0762 13.5966 31.455 13.7576 31.9702 13.8864L33.2656 14.2045C34.0459 14.3939 34.6274 14.6837 35.0099 15.0739C35.3925 15.4602 35.5838 15.9583 35.5838 16.5682C35.5838 17.0682 35.4399 17.5152 35.152 17.9091C34.8679 18.303 34.4702 18.6136 33.9588 18.8409C33.4474 19.0682 32.8527 19.1818 32.1747 19.1818C31.2846 19.1818 30.5478 18.9886 29.9645 18.6023C29.3812 18.2159 29.0118 17.6515 28.8565 16.9091L30.1293 16.5909C30.2505 17.0606 30.4796 17.4129 30.8168 17.6477C31.1577 17.8826 31.6027 18 32.152 18C32.777 18 33.2732 17.8674 33.6406 17.6023C34.0118 17.3333 34.1974 17.0114 34.1974 16.6364C34.1974 16.3333 34.0914 16.0795 33.8793 15.875C33.6671 15.6667 33.3414 15.5114 32.902 15.4091L31.4474 15.0682C30.6482 14.8788 30.0611 14.5852 29.6861 14.1875C29.3149 13.786 29.1293 13.2841 29.1293 12.6818C29.1293 12.1894 29.2675 11.7538 29.544 11.375C29.8243 10.9962 30.205 10.6989 30.6861 10.483C31.1709 10.267 31.7202 10.1591 32.3338 10.1591C33.1974 10.1591 33.8755 10.3485 34.3679 10.7273C34.8641 11.1061 35.2164 11.6061 35.4247 12.2273ZM41.3977 10.2727V11.4091H36.875V10.2727H41.3977ZM38.1932 8.18182H39.5341V16.5C39.5341 16.8788 39.589 17.1629 39.6989 17.3523C39.8125 17.5379 39.9564 17.6629 40.1307 17.7273C40.3087 17.7879 40.4962 17.8182 40.6932 17.8182C40.8409 17.8182 40.9621 17.8106 41.0568 17.7955C41.1515 17.7765 41.2273 17.7614 41.2841 17.75L41.5568 18.9545C41.4659 18.9886 41.339 19.0227 41.1761 19.0568C41.0133 19.0947 40.8068 19.1136 40.5568 19.1136C40.178 19.1136 39.8068 19.0322 39.4432 18.8693C39.0833 18.7064 38.7841 18.4583 38.5455 18.125C38.3106 17.7917 38.1932 17.3712 38.1932 16.8636V8.18182Z" fill="white"/>
<circle cx="58" cy="15" r="13" fill="#D9D9D9"/>
</svg>
