<svg width="73" height="30" viewBox="0 0 73 30" fill="none" xmlns="http://www.w3.org/2000/svg">
<rect width="73" height="30" rx="15" fill="#E63946"/>
<circle cx="16" cy="15" r="13" fill="#D9D9D9"/>
<path d="M31.8807 18V10.7273H34.3381C34.9063 10.7273 35.3726 10.8243 35.7372 11.0185C36.1018 11.2102 36.3717 11.4742 36.5469 11.8104C36.7221 12.1465 36.8097 12.5289 36.8097 12.9574C36.8097 13.3859 36.7221 13.7659 36.5469 14.0973C36.3717 14.4287 36.103 14.6892 35.7408 14.8786C35.3786 15.0656 34.9157 15.1591 34.3523 15.1591H32.3636V14.3636H34.3239C34.7121 14.3636 35.0246 14.3068 35.2614 14.1932C35.5005 14.0795 35.6733 13.9186 35.7798 13.7102C35.8887 13.4995 35.9432 13.2486 35.9432 12.9574C35.9432 12.6662 35.8887 12.4117 35.7798 12.1939C35.6709 11.9761 35.4969 11.808 35.2578 11.6896C35.0187 11.5689 34.7027 11.5085 34.3097 11.5085H32.7614V18H31.8807ZM35.304 14.733L37.0938 18H36.071L34.3097 14.733H35.304ZM40.3919 18.1136C39.8663 18.1136 39.4129 17.9976 39.0318 17.7656C38.653 17.5312 38.3606 17.2045 38.1547 16.7855C37.9511 16.3641 37.8493 15.8741 37.8493 15.3153C37.8493 14.7566 37.9511 14.2642 38.1547 13.8381C38.3606 13.4096 38.6471 13.0758 39.014 12.8366C39.3833 12.5952 39.8142 12.4744 40.3066 12.4744C40.5907 12.4744 40.8713 12.5218 41.1483 12.6165C41.4252 12.7112 41.6774 12.8651 41.9047 13.0781C42.1319 13.2888 42.313 13.5682 42.448 13.9162C42.5829 14.2642 42.6504 14.6927 42.6504 15.2017V15.5568H38.4458V14.8324H41.7981C41.7981 14.5246 41.7366 14.25 41.6135 14.0085C41.4927 13.767 41.3199 13.5765 41.095 13.4368C40.8725 13.2971 40.6097 13.2273 40.3066 13.2273C39.9728 13.2273 39.684 13.3101 39.4402 13.4759C39.1987 13.6392 39.0128 13.8523 38.8826 14.1151C38.7524 14.3778 38.6873 14.6596 38.6873 14.9602V15.4432C38.6873 15.8551 38.7583 16.2043 38.9004 16.4908C39.0448 16.7749 39.2449 16.9915 39.5005 17.1406C39.7562 17.2874 40.0533 17.3608 40.3919 17.3608C40.612 17.3608 40.8109 17.33 40.9885 17.2685C41.1684 17.2045 41.3234 17.1098 41.4537 16.9844C41.5839 16.8565 41.6845 16.6979 41.7555 16.5085L42.5652 16.7358C42.4799 17.0104 42.3367 17.2519 42.1355 17.4602C41.9342 17.6662 41.6857 17.8272 41.3897 17.9432C41.0938 18.0568 40.7612 18.1136 40.3919 18.1136ZM43.9252 18V12.5455H44.7349V13.3977H44.8059C44.9196 13.1065 45.103 12.8804 45.3564 12.7195C45.6097 12.5561 45.9139 12.4744 46.269 12.4744C46.6288 12.4744 46.9283 12.5561 47.1674 12.7195C47.4089 12.8804 47.5971 13.1065 47.7321 13.3977H47.7889C47.9286 13.116 48.1381 12.8923 48.4174 12.7266C48.6968 12.5585 49.0318 12.4744 49.4224 12.4744C49.9101 12.4744 50.309 12.6271 50.6191 12.9325C50.9293 13.2356 51.0843 13.7079 51.0843 14.3494V18H50.2463V14.3494C50.2463 13.947 50.1362 13.6593 49.916 13.4865C49.6958 13.3137 49.4366 13.2273 49.1383 13.2273C48.7548 13.2273 48.4577 13.3433 48.247 13.5753C48.0363 13.8049 47.9309 14.0961 47.9309 14.4489V18H47.0787V14.2642C47.0787 13.9541 46.978 13.7043 46.7768 13.5149C46.5756 13.3232 46.3163 13.2273 45.9991 13.2273C45.7813 13.2273 45.5777 13.2853 45.3883 13.4013C45.2013 13.5173 45.0498 13.6783 44.9338 13.8842C44.8201 14.0878 44.7633 14.3234 44.7633 14.5909V18H43.9252ZM54.8326 18.1136C54.3401 18.1136 53.9081 17.9964 53.5364 17.7621C53.1671 17.5277 52.8783 17.1998 52.6699 16.7784C52.464 16.357 52.361 15.8646 52.361 15.3011C52.361 14.733 52.464 14.237 52.6699 13.8132C52.8783 13.3894 53.1671 13.0604 53.5364 12.826C53.9081 12.5916 54.3401 12.4744 54.8326 12.4744C55.325 12.4744 55.7559 12.5916 56.1252 12.826C56.4969 13.0604 56.7857 13.3894 56.9917 13.8132C57.2 14.237 57.3042 14.733 57.3042 15.3011C57.3042 15.8646 57.2 16.357 56.9917 16.7784C56.7857 17.1998 56.4969 17.5277 56.1252 17.7621C55.7559 17.9964 55.325 18.1136 54.8326 18.1136ZM54.8326 17.3608C55.2066 17.3608 55.5144 17.2649 55.7559 17.0732C55.9973 16.8814 56.1761 16.6293 56.2921 16.3168C56.4081 16.0043 56.4661 15.6657 56.4661 15.3011C56.4661 14.9366 56.4081 14.5968 56.2921 14.282C56.1761 13.9671 55.9973 13.7126 55.7559 13.5185C55.5144 13.3243 55.2066 13.2273 54.8326 13.2273C54.4585 13.2273 54.1507 13.3243 53.9093 13.5185C53.6678 13.7126 53.4891 13.9671 53.373 14.282C53.257 14.5968 53.199 14.9366 53.199 15.3011C53.199 15.6657 53.257 16.0043 53.373 16.3168C53.4891 16.6293 53.6678 16.8814 53.9093 17.0732C54.1507 17.2649 54.4585 17.3608 54.8326 17.3608ZM62.8484 12.5455L60.8313 18H59.979L57.962 12.5455H58.8711L60.3768 16.892H60.4336L61.9393 12.5455H62.8484ZM66.0462 18.1136C65.5206 18.1136 65.0672 17.9976 64.6861 17.7656C64.3073 17.5312 64.0149 17.2045 63.8089 16.7855C63.6054 16.3641 63.5036 15.8741 63.5036 15.3153C63.5036 14.7566 63.6054 14.2642 63.8089 13.8381C64.0149 13.4096 64.3014 13.0758 64.6683 12.8366C65.0376 12.5952 65.4685 12.4744 65.9609 12.4744C66.245 12.4744 66.5256 12.5218 66.8026 12.6165C67.0795 12.7112 67.3317 12.8651 67.5589 13.0781C67.7862 13.2888 67.9673 13.5682 68.1023 13.9162C68.2372 14.2642 68.3047 14.6927 68.3047 15.2017V15.5568H64.1001V14.8324H67.4524C67.4524 14.5246 67.3909 14.25 67.2678 14.0085C67.147 13.767 66.9742 13.5765 66.7493 13.4368C66.5268 13.2971 66.264 13.2273 65.9609 13.2273C65.6271 13.2273 65.3383 13.3101 65.0945 13.4759C64.853 13.6392 64.6671 13.8523 64.5369 14.1151C64.4067 14.3778 64.3416 14.6596 64.3416 14.9602V15.4432C64.3416 15.8551 64.4126 16.2043 64.5547 16.4908C64.6991 16.7749 64.8991 16.9915 65.1548 17.1406C65.4105 17.2874 65.7076 17.3608 66.0462 17.3608C66.2663 17.3608 66.4652 17.33 66.6428 17.2685C66.8227 17.2045 66.9777 17.1098 67.108 16.9844C67.2382 16.8565 67.3388 16.6979 67.4098 16.5085L68.2195 16.7358C68.1342 17.0104 67.991 17.2519 67.7898 17.4602C67.5885 17.6662 67.34 17.8272 67.044 17.9432C66.7481 18.0568 66.4155 18.1136 66.0462 18.1136Z" fill="white"/>
</svg>
